# File produced by Open Asset Import Library (http://www.assimp.sf.net)
# (assimp v3.1.243586452)

mtllib window.mtl

# vertex positions
v -5.764687 99.999992 -100.000015
v -5.764687 100.000015 99.999992
v 5.764687 100.000015 99.999992
v 5.764687 99.999992 -100.000015
v -5.764687 -99.999992 100.000015
v 5.764687 -99.999992 100.000015
v 2.697082 -3.470933 92.219727
v 2.697082 -3.470948 2.703405
v 6.013077 -3.470948 2.703405
v 6.013077 -3.470933 92.219727
v 6.013077 -3.470949 -2.512112
v 6.013077 3.191640 -2.512113
v 6.013077 3.191642 2.703404
v 5.316179 -92.219704 92.219734
v 5.316179 92.219734 92.219704
v -6.013077 -3.470948 2.703405
v -6.013077 -3.470949 -2.512112
v -6.013077 -92.219727 -2.512097
v -6.013077 -92.219727 2.703419
v 6.013077 3.191656 92.219727
v -6.013077 -3.470933 92.219727
v -6.013077 3.191656 92.219727
v -6.013077 3.191642 2.703404
v 5.764687 -100.000015 -99.999992
v 5.316179 -92.219734 -92.219704
v 6.013077 92.219727 -2.512127
v 6.013077 92.219727 2.703390
v -5.316179 92.219734 92.219704
v -5.316179 -92.219704 92.219734
v -5.316179 92.219704 -92.219734
v -5.316179 -3.470963 -92.219727
v -5.316179 -92.219734 -92.219704
v -2.697082 -92.219734 -92.219704
v -2.697082 -3.470963 -92.219727
v -6.013077 92.219727 2.703390
v -6.013077 92.219727 -2.512127
v -6.013077 3.191640 -2.512113
v -2.697082 92.219704 -92.219734
v -2.697082 92.219727 -2.512127
v -2.697082 92.219727 2.703390
v -2.697082 92.219734 92.219704
v -5.316179 3.191626 -92.219727
v -2.697082 3.191626 -92.219727
v 2.697082 -92.219727 2.703419
v 6.013077 -92.219727 2.703419
v 2.697082 3.191640 -2.512113
v 2.697082 92.219727 -2.512127
v 2.697082 92.219727 2.703390
v -6.013077 -3.470963 -92.219727
v -6.013077 3.191626 -92.219727
v 2.697082 3.191642 2.703404
v 2.697082 3.191656 92.219727
v -2.697082 -3.470949 -2.512112
v 2.697082 -92.219727 -2.512097
v 6.013077 -92.219727 -2.512097
v 5.316179 92.219704 -92.219734
v -5.764687 -100.000015 -99.999992
v 2.697082 3.191626 -92.219727
v 2.697082 -3.470963 -92.219727
v 2.697082 -92.219734 -92.219704
v 2.697082 92.219704 -92.219734
v -2.697082 3.191656 92.219727
v -2.697082 -3.470933 92.219727
v -2.697082 -92.219704 92.219734
v 2.697082 -92.219704 92.219734
v 2.697082 92.219734 92.219704
v -2.697082 3.191642 2.703404
v 6.013077 -3.470963 -92.219727
v 6.013077 3.191626 -92.219727
v 2.697082 -3.470949 -2.512112
v -2.697082 3.191640 -2.512113
v -2.697082 -92.219727 -2.512097
v -2.697082 -92.219727 2.703419
v -2.697082 -3.470948 2.703405

# UV coordinates
vt 0.008765 0.008765
vt 0.008765 0.240413
vt 0.240413 0.240413
vt 0.240413 0.008765
vt 0.240413 0.489591
vt 0.240413 0.257943
vt 0.008765 0.257943
vt 0.008765 0.489591
vt 0.159546 0.859980
vt 0.159546 0.756299
vt 0.092921 0.756299
vt 0.092921 0.859980
vt 0.682209 0.821592
vt 0.687686 0.816156
vt 0.683431 0.811868
vt 0.677953 0.817304
vt 0.240413 0.738769
vt 0.240413 0.507121
vt 0.231401 0.516133
vt 0.231401 0.729757
vt 0.820322 0.335980
vt 0.824577 0.331692
vt 0.751617 0.259284
vt 0.747361 0.263572
vt 0.610397 0.738276
vt 0.604919 0.743712
vt 0.747288 0.409572
vt 0.752765 0.415008
vt 0.825799 0.341416
vt 0.008765 0.507121
vt 0.017777 0.516133
vt 0.760876 0.743520
vt 0.756621 0.739232
vt 0.507121 0.240413
vt 0.516133 0.231401
vt 0.516133 0.017777
vt 0.507121 0.008765
vt 0.738769 0.240413
vt 0.729757 0.231401
vt 0.720746 0.369747
vt 0.720746 0.266955
vt 0.668123 0.266955
vt 0.668123 0.369747
vt 0.898990 0.414052
vt 0.903245 0.409764
vt 0.830055 0.337128
vt 0.257943 0.720746
vt 0.471568 0.720746
vt 0.471568 0.668123
vt 0.367665 0.668123
vt 0.361624 0.668123
vt 0.257943 0.668123
vt 0.720746 0.377464
vt 0.668123 0.377464
vt 0.987401 0.481058
vt 0.987401 0.378266
vt 0.920776 0.378266
vt 0.920776 0.481058
vt 0.778407 0.859710
vt 0.778407 0.962825
vt 0.845032 0.962825
vt 0.845032 0.859710
vt 0.208364 0.840455
vt 0.202324 0.840455
vt 0.202324 0.907079
vt 0.208364 0.907079
vt 0.177076 0.907079
vt 0.184793 0.907079
vt 0.184793 0.840455
vt 0.177076 0.840455
vt 0.862563 0.738276
vt 0.862563 0.841957
vt 0.929187 0.841957
vt 0.929187 0.738276
vt 0.778407 0.738276
vt 0.778407 0.842179
vt 0.845032 0.842179
vt 0.845032 0.738276
vt 0.720746 0.480579
vt 0.668123 0.480579
vt 0.225895 0.907079
vt 0.231936 0.907079
vt 0.231936 0.840455
vt 0.225895 0.840455
vt 0.177076 0.822924
vt 0.184793 0.822924
vt 0.184793 0.756299
vt 0.177076 0.756299
vt 0.017777 0.729757
vt 0.008765 0.738769
vt 0.489591 0.489591
vt 0.489591 0.257943
vt 0.257943 0.257943
vt 0.257943 0.489591
vt 0.559744 0.377464
vt 0.559744 0.369747
vt 0.559744 0.266955
vt 0.507121 0.266955
vt 0.507121 0.480579
vt 0.559744 0.480579
vt 0.729757 0.489591
vt 0.729757 0.257943
vt 0.720254 0.507121
vt 0.720254 0.559744
vt 0.823369 0.559744
vt 0.831086 0.559744
vt 0.933878 0.559744
vt 0.933878 0.507121
vt 0.720254 0.720746
vt 0.933878 0.720746
vt 0.933878 0.668123
vt 0.831086 0.668123
vt 0.823369 0.668123
vt 0.720254 0.668123
vt 0.008765 0.877733
vt 0.008765 0.980848
vt 0.075390 0.980848
vt 0.075390 0.877733
vt 0.755399 0.895341
vt 0.760876 0.889905
vt 0.903245 0.263379
vt 0.897768 0.257943
vt 0.504466 0.816313
vt 0.508721 0.812025
vt 0.435760 0.739617
vt 0.431505 0.743905
vt 0.604993 0.889712
vt 0.609248 0.894000
vt 0.822924 0.112668
vt 0.822924 0.008765
vt 0.756299 0.008765
vt 0.756299 0.112668
vt 0.929187 0.962604
vt 0.929187 0.859488
vt 0.862563 0.859488
vt 0.862563 0.962604
vt 0.008765 0.756299
vt 0.008765 0.860202
vt 0.075390 0.860202
vt 0.075390 0.756299
vt 0.952759 0.738276
vt 0.946718 0.738276
vt 0.946718 0.804901
vt 0.952759 0.804901
vt 0.924610 0.129977
vt 0.924610 0.232769
vt 0.991235 0.232769
vt 0.991235 0.129977
vt 0.159546 0.980626
vt 0.159546 0.877511
vt 0.092921 0.877511
vt 0.092921 0.980626
vt 0.822924 0.234101
vt 0.822924 0.130199
vt 0.756299 0.130199
vt 0.756299 0.234101
vt 0.840455 0.129977
vt 0.840455 0.233658
vt 0.907079 0.233658
vt 0.907079 0.129977
vt 0.431431 0.889905
vt 0.436909 0.895341
vt 0.509943 0.821749
vt 0.257943 0.008765
vt 0.257943 0.240413
vt 0.489591 0.240413
vt 0.489591 0.008765
vt 0.257943 0.507121
vt 0.257943 0.559744
vt 0.361624 0.559744
vt 0.367665 0.559744
vt 0.471568 0.559744
vt 0.471568 0.507121
vt 0.729757 0.017777
vt 0.738769 0.008765
vt 0.489098 0.507121
vt 0.489098 0.559744
vt 0.592779 0.559744
vt 0.598820 0.559744
vt 0.702723 0.559744
vt 0.702723 0.507121
vt 0.587389 0.743712
vt 0.581911 0.738276
vt 0.514198 0.817461
vt 0.489098 0.720746
vt 0.702723 0.720746
vt 0.702723 0.668123
vt 0.598820 0.668123
vt 0.592779 0.668123
vt 0.489098 0.668123
vt 0.987401 0.360735
vt 0.987401 0.257943
vt 0.920776 0.257943
vt 0.920776 0.360735
vt 0.946718 0.889057
vt 0.952759 0.889057
vt 0.952759 0.822432
vt 0.946718 0.822432
vt 0.235288 0.756299
vt 0.227571 0.756299
vt 0.227571 0.822924
vt 0.235288 0.822924
vt 0.924610 0.008765
vt 0.924610 0.111557
vt 0.991235 0.111557
vt 0.991235 0.008765
vt 0.210040 0.756299
vt 0.202324 0.756299
vt 0.202324 0.822924
vt 0.210040 0.822924
vt 0.907079 0.112446
vt 0.907079 0.008765
vt 0.840455 0.008765
vt 0.840455 0.112446
vt 0.583133 0.894385
vt 0.587389 0.890097
vt 0.263421 0.738276
vt 0.257943 0.743712
vt 0.330978 0.817304
vt 0.336455 0.811868
vt 0.408423 0.895341
vt 0.413901 0.889905
vt 0.340710 0.816156
vt 0.335233 0.821592
vt 0.258017 0.889712
vt 0.262272 0.894000
vt 0.409645 0.739232
vt 0.413901 0.743520
vt 0.810845 0.727766
vt 0.832548 0.364874
vt 0.235057 0.867792
vt 0.112635 0.763832
vt 0.512483 0.614583
vt 0.688100 0.831727
vt 0.615656 0.841854
vt 0.445548 0.745799

# vertex normals
vn 0.000000 1.000000 -0.000000
vn 0.000000 0.000000 1.000000
vn 0.000000 -1.000000 0.000000
vn 1.000000 0.000000 0.000000
vn 0.998343 -0.000000 -0.057551
vn -1.000000 0.000000 0.000000
vn 0.998343 0.057551 -0.000000
vn -0.998343 -0.000000 -0.057551
vn -0.998343 -0.057551 0.000000
vn 0.000000 0.000000 1.000000
vn 0.000000 -0.000000 -1.000000
vn 0.998343 0.000000 0.057551
vn -0.998343 0.000000 0.057551
vn -0.998343 0.057551 -0.000000
vn 0.998343 -0.057551 0.000000
vn 0.000000 1.000000 -0.000000

# Mesh
g Frame
usemtl Material
f 4/4/1 1/1/1 2/2/1
f 2/2/1 3/3/1 4/4/1
f 3/8/2 2/5/2 5/6/2
f 5/6/2 6/7/2 3/8/2
f 10/12/3 7/9/3 8/10/3
f 8/10/3 9/11/3 10/12/3
f 9/16/4 11/13/4 12/14/4
f 12/14/4 13/15/4 9/16/4
f 15/20/5 3/17/5 6/18/5
f 6/18/5 14/19/5 15/20/5
f 19/24/6 16/21/6 17/22/6
f 17/22/6 18/23/6 19/24/6
f 10/26/4 9/16/4 13/15/4
f 13/15/4 20/25/4 10/26/4
f 16/21/6 21/27/6 22/28/6
f 22/28/6 23/29/6 16/21/6
f 14/19/7 6/18/7 24/30/7
f 24/30/7 25/31/7 14/19/7
f 13/15/4 12/14/4 26/32/4
f 26/32/4 27/33/4 13/15/4
f 5/37/8 2/34/8 28/35/8
f 28/35/8 29/36/8 5/37/8
f 28/35/9 2/34/9 1/38/9
f 1/38/9 30/39/9 28/35/9
f 34/43/2 31/40/2 32/41/2
f 32/41/2 33/42/2 34/43/2
f 37/46/6 23/29/6 35/44/6
f 35/44/6 36/45/6 37/46/6
f 41/52/3 28/47/3 30/48/3
f 41/52/3 30/48/3 38/49/3
f 41/52/3 38/49/3 39/50/3
f 39/50/3 40/51/3 41/52/3
f 43/54/10 42/53/10 31/40/2
f 31/40/2 34/43/2 43/54/10
f 9/58/2 8/55/2 44/56/2
f 44/56/2 45/57/2 9/58/2
f 12/62/11 46/59/11 47/60/11
f 47/60/11 26/61/11 12/62/11
f 26/66/1 47/63/1 48/64/1
f 48/64/1 27/65/1 26/66/1
f 50/70/11 43/67/11 34/68/11
f 34/68/11 49/69/11 50/70/11
f 13/74/1 51/71/1 52/72/1
f 52/72/1 20/73/1 13/74/1
f 49/78/3 34/75/3 53/76/3
f 53/76/3 17/77/3 49/78/3
f 38/80/2 30/79/2 42/53/10
f 42/53/10 43/54/10 38/80/2
f 45/84/3 44/81/3 54/82/3
f 54/82/3 55/83/3 45/84/3
f 17/22/6 16/21/6 23/29/6
f 23/29/6 37/46/6 17/22/6
f 20/88/2 52/85/2 7/86/2
f 7/86/2 10/87/2 20/88/2
f 4/90/12 56/89/12 25/31/12
f 25/31/12 24/30/12 4/90/12
f 1/94/11 4/91/11 24/92/11
f 24/92/11 57/93/11 1/94/11
f 61/100/2 58/95/2 59/96/2
f 59/96/2 60/97/2 25/98/2
f 59/96/2 25/98/2 56/99/2
f 59/96/2 56/99/2 61/100/2
f 30/79/13 1/101/13 57/102/13
f 30/79/13 57/102/13 32/41/13
f 31/40/13 42/53/13 30/79/13
f 32/41/13 31/40/13 30/79/13
f 29/108/11 28/103/11 41/104/11
f 29/108/11 41/104/11 62/105/11
f 29/108/11 62/105/11 63/106/11
f 63/106/11 64/107/11 29/108/11
f 66/114/11 15/109/11 14/110/11
f 66/114/11 14/110/11 65/111/11
f 65/111/11 7/112/11 52/113/11
f 65/111/11 52/113/11 66/114/11
f 23/118/2 67/115/2 40/116/2
f 40/116/2 35/117/2 23/118/2
f 11/13/4 68/119/4 69/120/4
f 69/120/4 12/14/4 11/13/4
f 49/122/6 17/22/6 37/46/6
f 37/46/6 50/121/6 49/122/6
f 44/126/6 8/123/6 70/124/6
f 70/124/6 54/125/6 44/126/6
f 55/128/4 11/13/4 9/16/4
f 9/16/4 45/127/4 55/128/4
f 37/132/1 71/129/1 43/130/1
f 43/130/1 50/131/1 37/132/1
f 27/136/2 48/133/2 51/134/2
f 51/134/2 13/135/2 27/136/2
f 69/140/1 58/137/1 46/138/1
f 46/138/1 12/139/1 69/140/1
f 18/144/3 72/141/3 73/142/3
f 73/142/3 19/143/3 18/144/3
f 55/148/11 54/145/11 70/146/11
f 70/146/11 11/147/11 55/148/11
f 36/152/11 39/149/11 71/150/11
f 71/150/11 37/151/11 36/152/11
f 11/156/3 70/153/3 59/154/3
f 59/154/3 68/155/3 11/156/3
f 16/160/3 74/157/3 63/158/3
f 63/158/3 21/159/3 16/160/3
f 8/123/6 7/161/6 52/162/6
f 52/162/6 51/163/6 8/123/6
f 57/167/3 24/164/3 6/165/3
f 6/165/3 5/166/3 57/167/3
f 56/173/3 15/168/3 66/169/3
f 56/173/3 66/169/3 48/170/3
f 56/173/3 48/170/3 47/171/3
f 47/171/3 61/172/3 56/173/3
f 57/175/14 5/37/14 29/36/14
f 29/36/14 32/174/14 57/175/14
f 4/90/15 3/17/15 15/20/15
f 15/20/15 56/89/15 4/90/15
f 32/181/1 29/176/1 64/177/1
f 32/181/1 64/177/1 73/178/1
f 32/181/1 73/178/1 72/179/1
f 72/179/1 33/180/1 32/181/1
f 46/184/6 58/182/6 59/183/6
f 59/183/6 70/124/6 46/184/6
f 65/190/1 14/185/1 25/186/1
f 65/190/1 25/186/1 60/187/1
f 65/190/1 60/187/1 54/188/1
f 54/188/1 44/189/1 65/190/1
f 17/194/11 53/191/11 72/192/11
f 72/192/11 18/193/11 17/194/11
f 35/198/1 40/195/1 39/196/1
f 39/196/1 36/197/1 35/198/1
f 21/202/2 63/199/2 62/200/2
f 62/200/2 22/201/2 21/202/2
f 19/206/2 73/203/2 74/204/2
f 74/204/2 16/205/2 19/206/2
f 68/210/11 59/207/11 58/208/11
f 58/208/11 69/209/11 68/210/11
f 22/214/1 62/211/1 67/212/1
f 67/212/1 23/213/1 22/214/1
f 46/184/6 51/163/6 48/215/6
f 48/215/6 47/216/6 46/184/6
f 46/184/6 70/124/6 8/123/6
f 8/123/6 51/163/6 46/184/6
f 67/220/4 62/217/4 63/218/4
f 63/218/4 74/219/4 67/220/4
f 53/224/4 34/221/4 43/222/4
f 43/222/4 71/223/4 53/224/4
f 72/226/4 53/224/4 74/219/4
f 74/219/4 73/225/4 72/226/4
f 39/228/4 40/227/4 67/220/4
f 67/220/4 71/223/4 39/228/4
f 67/220/4 74/219/4 53/224/4
f 53/224/4 71/223/4 67/220/4
f 72/179/1 54/188/1 60/187/1
f 60/187/1 33/180/1 72/179/1
f 44/189/16 73/178/1 64/177/1
f 64/177/1 65/190/1 44/189/16
f 63/106/11 7/112/11 65/111/11
f 65/111/11 64/107/11 63/106/11
f 52/113/11 62/105/11 41/104/11
f 41/104/11 66/114/11 52/113/11
f 63/106/11 62/105/11 52/113/11
f 52/113/11 7/112/11 63/106/11
f 40/51/3 48/170/3 66/169/3
f 66/169/3 41/52/3 40/51/3
f 47/171/3 48/170/3 40/51/3
f 40/51/3 39/50/3 47/171/3
f 47/171/3 39/50/3 38/49/3
f 38/49/3 61/172/3 47/171/3
f 43/54/10 58/95/2 61/100/2
f 61/100/2 38/80/2 43/54/10
f 33/42/2 60/97/2 59/96/2
f 59/96/2 34/43/2 33/42/2
f 59/96/2 58/95/2 43/54/10
f 43/54/10 34/43/2 59/96/2

# Mesh
g window
usemtl Material.001
f 60/232/3 65/229/3 64/230/3
f 64/230/3 33/231/3 60/232/3
f 66/236/1 61/233/1 38/234/1
f 38/234/1 41/235/1 66/236/1
f 61/233/11 60/232/11 33/231/11
f 33/231/11 38/234/11 61/233/11
f 64/230/6 41/235/6 38/234/6
f 38/234/6 33/231/6 64/230/6
f 60/232/4 61/233/4 66/236/4
f 66/236/4 65/229/4 60/232/4
f 64/230/2 65/229/2 66/236/2
f 66/236/2 41/235/2 64/230/2
