# File produced by Open Asset Import Library (http://www.assimp.sf.net)
# (assimp v3.1.243586452)

mtllib Rug.mtl

# vertex positions
v 375.666107 1.877235 214.013596
v 375.666107 -1.877166 214.013596
v 388.730774 -1.877167 207.046646
v 388.730774 1.877234 207.046646
v -375.666107 -1.877166 214.013596
v -375.666107 1.877235 214.013596
v -388.730774 1.877234 207.046646
v -388.730774 -1.877167 207.046646
v 395.485626 -1.877168 198.350418
v 395.485596 1.877233 198.350418
v -401.327576 -1.877230 -182.688690
v -395.485626 -1.877233 -198.350418
v -388.730774 -1.877234 -207.046646
v -375.666107 -1.877235 -214.013596
v 375.666107 -1.877235 -214.013596
v 388.730774 -1.877234 -207.046646
v 395.485596 -1.877233 -198.350418
v 401.327576 -1.877230 -182.688690
v 401.327576 -1.877171 182.688690
v -395.485596 -1.877168 198.350418
v -401.327576 -1.877171 182.688690
v 401.327576 1.877171 -182.688690
v 395.485626 1.877168 -198.350418
v 388.730774 1.877167 -207.046646
v 375.666107 1.877166 -214.013596
v -375.666107 1.877166 -214.013596
v -388.730774 1.877167 -207.046646
v -395.485596 1.877168 -198.350418
v -401.327576 1.877171 -182.688690
v -401.327576 1.877230 182.688690
v -395.485626 1.877233 198.350418
v 401.327576 1.877230 182.688690

# UV coordinates
vt 0.679501 0.336343
vt 0.679501 0.003946
vt 0.674090 0.003946
vt 0.674090 0.336343
vt 0.990644 0.003946
vt 0.990644 0.336343
vt 0.996054 0.336343
vt 0.996054 0.003946
vt 0.659445 0.344235
vt 0.659445 0.676632
vt 0.666198 0.676632
vt 0.666198 0.344235
vt 0.028272 0.003946
vt 0.016110 0.006365
vt 0.009356 0.009163
vt 0.003946 0.014573
vt 0.003946 0.325716
vt 0.009356 0.331126
vt 0.016110 0.333924
vt 0.028272 0.336343
vt 0.312017 0.336343
vt 0.324179 0.333924
vt 0.330932 0.331126
vt 0.336343 0.325716
vt 0.336343 0.014573
vt 0.330932 0.009163
vt 0.324179 0.006365
vt 0.312017 0.003946
vt 0.028272 0.344235
vt 0.016110 0.346654
vt 0.009356 0.349451
vt 0.003946 0.354862
vt 0.003946 0.666005
vt 0.009356 0.671415
vt 0.016110 0.674212
vt 0.028272 0.676632
vt 0.312017 0.676632
vt 0.324179 0.674213
vt 0.330932 0.671415
vt 0.336343 0.666005
vt 0.336343 0.354862
vt 0.330932 0.349451
vt 0.324179 0.346654
vt 0.312017 0.344235
vt 0.349645 0.336343
vt 0.349645 0.003946
vt 0.344235 0.003946
vt 0.344235 0.336343
vt 0.680844 0.676632
vt 0.680844 0.344235
vt 0.674090 0.344235
vt 0.674090 0.676632
vt 0.660788 0.336343
vt 0.660788 0.003946
vt 0.363538 0.344235
vt 0.363538 0.676632
vt 0.647283 0.676632
vt 0.647283 0.344235
vt 0.988913 0.344235
vt 0.988913 0.676632
vt 0.995667 0.676632
vt 0.995667 0.344235
vt 0.693006 0.344235
vt 0.693006 0.676632
vt 0.976751 0.676632
vt 0.976751 0.344235
vt 0.666198 0.336343
vt 0.666199 0.003946
vt 0.351376 0.344235
vt 0.351376 0.676632
vt 0.344622 0.344235
vt 0.344622 0.676632

# vertex normals
vn 0.470541 0.000000 0.882378
vn -0.470541 0.000000 0.882378
vn 0.000000 0.000000 1.000000
vn 0.789746 0.000000 0.613434
vn 0.000000 -1.000000 0.000000
vn -0.000000 1.000000 -0.000000
vn -0.470541 -0.000000 -0.882378
vn -0.789746 0.000000 0.613434
vn 0.000000 -0.000000 -1.000000
vn 1.000000 0.000000 0.000000
vn -0.789746 -0.000000 -0.613434
vn -1.000000 0.000000 0.000000
vn 0.470541 -0.000000 -0.882378
vn 0.936941 -0.000003 -0.349488
vn -0.936941 -0.000003 0.349488
vn 0.936941 0.000003 0.349488
vn -0.936941 0.000003 -0.349488
vn 0.789746 -0.000000 -0.613434

# Mesh
g Cube
usemtl Material
f 4/4/1 1/1/1 2/2/1
f 2/2/1 3/3/1 4/4/1
f 8/8/2 5/5/2 6/6/2
f 6/6/2 7/7/2 8/8/2
f 5/5/3 2/2/3 1/1/3
f 1/1/3 6/6/3 5/5/3
f 3/12/4 9/9/4 10/10/4
f 10/10/4 4/11/4 3/12/4
f 21/28/5 11/13/5 12/14/5
f 21/28/5 12/14/5 13/15/5
f 21/28/5 13/15/5 14/16/5
f 21/28/5 14/16/5 15/17/5
f 21/28/5 15/17/5 16/18/5
f 21/28/5 16/18/5 17/19/5
f 21/28/5 17/19/5 18/20/5
f 21/28/5 18/20/5 19/21/5
f 21/28/5 19/21/5 9/22/5
f 21/28/5 9/22/5 3/23/5
f 21/28/5 3/23/5 2/24/5
f 21/28/5 2/24/5 5/25/5
f 21/28/5 5/25/5 8/26/5
f 8/26/5 20/27/5 21/28/5
f 32/44/6 22/29/6 23/30/6
f 32/44/6 23/30/6 24/31/6
f 32/44/6 24/31/6 25/32/6
f 32/44/6 25/32/6 26/33/6
f 32/44/6 26/33/6 27/34/6
f 32/44/6 27/34/6 28/35/6
f 32/44/6 28/35/6 29/36/6
f 32/44/6 29/36/6 30/37/6
f 32/44/6 30/37/6 31/38/6
f 32/44/6 31/38/6 7/39/6
f 32/44/6 7/39/6 6/40/6
f 32/44/6 6/40/6 1/41/6
f 32/44/6 1/41/6 4/42/6
f 4/42/6 10/43/6 32/44/6
f 27/48/7 26/45/7 14/46/7
f 14/46/7 13/47/7 27/48/7
f 7/52/8 31/49/8 20/50/8
f 20/50/8 8/51/8 7/52/8
f 15/54/9 14/46/9 26/45/9
f 26/45/9 25/53/9 15/54/9
f 19/58/10 18/55/10 22/56/10
f 22/56/10 32/57/10 19/58/10
f 13/62/11 12/59/11 28/60/11
f 28/60/11 27/61/11 13/62/11
f 11/66/12 21/63/12 30/64/12
f 30/64/12 29/65/12 11/66/12
f 25/53/13 24/67/13 16/68/13
f 16/68/13 15/54/13 25/53/13
f 23/70/14 22/56/14 18/55/14
f 18/55/14 17/69/14 23/70/14
f 31/49/15 30/64/15 21/63/15
f 21/63/15 20/50/15 31/49/15
f 9/9/16 19/58/16 32/57/16
f 32/57/16 10/10/16 9/9/16
f 12/59/17 11/66/17 29/65/17
f 29/65/17 28/60/17 12/59/17
f 24/72/18 23/70/18 17/69/18
f 17/69/18 16/71/18 24/72/18
